<svg width="1024" height="1024" viewBox="0 0 1024 1024" xmlns="http://www.w3.org/2000/svg"><title>GitQ</title><g fill="none" fill-rule="evenodd"><path d="M512 1024h512V512C1024 229.228 794.77 0 512 0S0 229.228 0 512s229.23 512 512 512z" fill="red"/><path d="M730.735 715.96l-14.388 14.387c-32.723 32.724-65.542 57.832-98.454 75.323-30.842 15.797-65.354 24.92-103.532 27.365-85.952 5.077-160.14-23.604-222.578-86.043-60.934-60.934-91.118-135.127-90.556-222.578.75-87.636 32.062-162.392 93.94-224.27 63.192-63.192 138.89-94.694 227.094-94.506 88.385 0 164.277 31.69 227.657 95.07 34.037 34.035 58.897 72.75 74.574 116.128 14.352 42.068 19.585 92.314 15.7 150.74l-91.683-1.975c11.844-83.31-7.9-150.642-59.243-201.986-46.08-46.08-100.623-68.833-163.618-68.27-62.44 0-117.172 23.514-164.184 70.526-48.52 48.52-71.095 105.88-67.706 172.084 3.382 61.69 24.074 111.525 62.063 149.514 32.343 32.344 72.276 50.525 119.808 54.527 47.713 3.818 88.36-8.057 121.953-35.627L488.973 597.76l61.782-61.782 179.98 179.982z" fill="#FFF"/></g></svg>
